<svg width="22" height="22" viewBox="0 0 22 22" fill="none" xmlns="http://www.w3.org/2000/svg">
<circle cx="11" cy="11" r="10" stroke="url(#paint0_linear_714_791)" stroke-width="2"/>
<path d="M13.0147 7.4876C12.988 7.74093 12.968 7.9876 12.9547 8.2276C12.948 8.46093 12.9447 8.64093 12.9447 8.7676C12.9447 8.89426 12.948 9.01426 12.9547 9.1276C12.9613 9.24093 12.968 9.33426 12.9747 9.4076H12.7447C12.698 8.98093 12.6247 8.64426 12.5247 8.3976C12.4313 8.15093 12.288 7.9776 12.0947 7.8776C11.908 7.77093 11.6447 7.7176 11.3047 7.7176H10.6147C10.4013 7.7176 10.238 7.7376 10.1247 7.7776C10.018 7.81093 9.94468 7.88426 9.90468 7.9976C9.86468 8.10426 9.84468 8.27426 9.84468 8.5076V13.5476C9.84468 13.7743 9.86468 13.9443 9.90468 14.0576C9.94468 14.1709 10.018 14.2476 10.1247 14.2876C10.238 14.3209 10.4013 14.3376 10.6147 14.3376H11.2647C11.6447 14.3376 11.9447 14.2776 12.1647 14.1576C12.3913 14.0376 12.5613 13.8409 12.6747 13.5676C12.7947 13.2943 12.8847 12.9209 12.9447 12.4476H13.1747C13.1547 12.6409 13.1447 12.8943 13.1447 13.2076C13.1447 13.3409 13.148 13.5343 13.1547 13.7876C13.168 14.0409 13.188 14.3009 13.2147 14.5676C12.8747 14.5543 12.4913 14.5476 12.0647 14.5476C11.638 14.5409 11.258 14.5376 10.9247 14.5376C10.7713 14.5376 10.5747 14.5376 10.3347 14.5376C10.0947 14.5376 9.83468 14.5409 9.55468 14.5476C9.28135 14.5476 9.00135 14.5509 8.71468 14.5576C8.43468 14.5576 8.16468 14.5609 7.90468 14.5676V14.3676C8.13135 14.3543 8.30135 14.3276 8.41468 14.2876C8.52801 14.2476 8.60135 14.1676 8.63468 14.0476C8.67468 13.9276 8.69468 13.7476 8.69468 13.5076V8.5476C8.69468 8.30093 8.67468 8.12093 8.63468 8.0076C8.60135 7.8876 8.52468 7.8076 8.40468 7.7676C8.29135 7.72093 8.12468 7.69426 7.90468 7.6876V7.4876C8.16468 7.49426 8.43468 7.50093 8.71468 7.5076C9.00135 7.5076 9.28135 7.51093 9.55468 7.5176C9.83468 7.5176 10.0947 7.5176 10.3347 7.5176C10.5747 7.5176 10.7713 7.5176 10.9247 7.5176C11.2313 7.5176 11.578 7.5176 11.9647 7.5176C12.358 7.51093 12.708 7.50093 13.0147 7.4876ZM11.3547 10.9076C11.3547 10.9076 11.3547 10.9409 11.3547 11.0076C11.3547 11.0743 11.3547 11.1076 11.3547 11.1076H9.54468C9.54468 11.1076 9.54468 11.0743 9.54468 11.0076C9.54468 10.9409 9.54468 10.9076 9.54468 10.9076H11.3547ZM11.6447 9.5876C11.618 9.9676 11.6047 10.2576 11.6047 10.4576C11.6113 10.6576 11.6147 10.8409 11.6147 11.0076C11.6147 11.1743 11.618 11.3576 11.6247 11.5576C11.6313 11.7576 11.648 12.0476 11.6747 12.4276H11.4447C11.4113 12.2076 11.368 11.9976 11.3147 11.7976C11.2613 11.5909 11.1647 11.4243 11.0247 11.2976C10.8913 11.1709 10.6813 11.1076 10.3947 11.1076V10.9076C10.608 10.9076 10.7747 10.8643 10.8947 10.7776C11.0213 10.6909 11.118 10.5776 11.1847 10.4376C11.2513 10.2976 11.298 10.1543 11.3247 10.0076C11.358 9.85426 11.388 9.71426 11.4147 9.5876H11.6447Z" fill="#DFA043"/>
<path d="M16.9682 6.96276C17.0903 6.87858 17.1214 6.71103 17.0329 6.59202C16.254 5.54454 15.214 4.71718 14.0148 4.19378C12.8156 3.67037 11.5018 3.47043 10.204 3.61153C10.0566 3.62756 9.9549 3.76431 9.9762 3.91109C9.9975 4.05786 10.1337 4.15903 10.2812 4.14341C11.4798 4.01643 12.6925 4.20265 13.7999 4.68601C14.9074 5.16936 15.8686 5.93193 16.5905 6.89709C16.6793 7.01586 16.8461 7.04695 16.9682 6.96276Z" fill="#DFA043"/>
<path d="M14.1983 17.5606C14.2636 17.6937 14.4247 17.7492 14.5555 17.6792C15.7062 17.0629 16.6777 16.1561 17.3719 15.047C18.0662 13.9379 18.4574 12.6679 18.5088 11.3635C18.5147 11.2153 18.3944 11.0946 18.2461 11.0941C18.0978 11.0935 17.9777 11.2134 17.9714 11.3615C17.9205 12.5657 17.5578 13.7378 16.9167 14.762C16.2756 15.7863 15.3798 16.6247 14.3189 17.1966C14.1883 17.267 14.133 17.4274 14.1983 17.5606Z" fill="#DFA043"/>
<path d="M3.96642 9.57371C3.82141 9.54261 3.67814 9.6349 3.65225 9.78093C3.42439 11.0663 3.53572 12.3905 3.97748 13.6222C4.41923 14.8538 5.17495 15.9469 6.1678 16.7944C6.2806 16.8907 6.44986 16.8709 6.54204 16.7547C6.63423 16.6385 6.61441 16.47 6.50187 16.3734C5.58732 15.5884 4.89096 14.5782 4.48301 13.4408C4.07506 12.3034 3.97064 11.081 4.17775 9.89362C4.20323 9.74752 4.11143 9.60481 3.96642 9.57371Z" fill="#DFA043"/>
<defs>
<linearGradient id="paint0_linear_714_791" x1="0.379629" y1="10.2796" x2="21.2796" y2="8.5196" gradientUnits="userSpaceOnUse">
<stop stop-color="#DFBB43"/>
<stop offset="0.207202" stop-color="#EDAC25" stop-opacity="0.951475"/>
<stop offset="1" stop-color="#FF9900" stop-opacity="0.89"/>
</linearGradient>
</defs>
</svg>
